<?xml version="1.0" encoding="UTF-8"?>
<svg width="45px" height="45px" viewBox="0 0 45 45" version="1.1" xmlns="http://www.w3.org/2000/svg" xmlns:xlink="http://www.w3.org/1999/xlink">
    <!-- Generator: Sketch 55.2 (78181) - https://sketchapp.com -->
    <title>Group 6</title>
    <desc>Created with Sketch.</desc>
    <g id="Page-1" stroke="none" stroke-width="1" fill="none" fill-rule="evenodd">
        <g id="Classes-Overview-Copy" transform="translate(-146.000000, -14.000000)">
            <g id="Group-6" transform="translate(146.000000, 14.000000)">
                <circle id="Oval" fill="#FFFFFF" cx="22.5" cy="22.5" r="21.5"></circle>
                <g id="Close-2" fill="#7ABABB">
                    <path d="M0.72,22.4 C0.72,34.5502645 10.5697355,44.4 22.72,44.4 C34.8702645,44.4 44.72,34.5502645 44.72,22.4 C44.72,10.2497355 34.8702645,0.4 22.72,0.4 C10.5697355,0.4 0.72,10.2497355 0.72,22.4 Z M22.72,41.4 C12.2265898,41.4 3.72,32.8934102 3.72,22.4 C3.72,11.9065898 12.2265898,3.4 22.72,3.4 C26.1796096,3.4 29.4232562,4.32464789 32.2172909,5.94029485 C37.8978978,9.22509857 41.72,15.3661994 41.72,22.4 C41.72,27.4391133 39.71822,32.2718377 36.1550288,35.8350288 C32.5918377,39.39822 27.7591133,41.4 22.72,41.4 Z" id="Shape"></path>
                    <path d="M30.76,14.32 C30.1743649,13.7350932 29.2256351,13.7350932 28.64,14.32 L22.95,20.24 L16.76,14.24 C16.3777758,13.8493097 15.8132988,13.6974453 15.2866404,13.8436137 C14.759982,13.9897822 14.3545147,14.4108444 14.2283172,14.9426417 C14.1021196,15.474439 14.2751694,16.0327856 14.68,16.4 L20.83,22.32 L14.68,28.24 C14.2751694,28.6072144 14.1021196,29.165561 14.2283172,29.6973583 C14.3545147,30.2291556 14.759982,30.6502178 15.2866404,30.7963863 C15.8132988,30.9425547 16.3777758,30.7906903 16.76,30.4 L22.95,24.4 L28.64,30.32 C29.0072144,30.7248306 29.565561,30.8978804 30.0973583,30.7716828 C30.6291556,30.6454853 31.0502178,30.240018 31.1963863,29.7133596 C31.3425547,29.1867012 31.1906903,28.6222242 30.8,28.24 L25.07,22.24 L30.8,16.24 C31.2517951,15.674222 31.2349669,14.8664705 30.76,14.32 L30.76,14.32 Z" id="Shape"></path>
                </g>
            </g>
        </g>
    </g>
</svg>