<?xml version="1.0" encoding="UTF-8"?>
<svg width="78px" height="78px" viewBox="0 0 78 78" version="1.1" xmlns="http://www.w3.org/2000/svg" xmlns:xlink="http://www.w3.org/1999/xlink">
    <!-- Generator: Sketch 55.2 (78181) - https://sketchapp.com -->
    <title>Group 2</title>
    <desc>Created with Sketch.</desc>
    <defs>
        <circle id="path-1" cx="30" cy="30" r="30"></circle>
        <filter x="-20.0%" y="-20.0%" width="150.0%" height="150.0%" filterUnits="objectBoundingBox" id="filter-2">
            <feMorphology radius="2" operator="dilate" in="SourceAlpha" result="shadowSpreadOuter1"></feMorphology>
            <feOffset dx="3" dy="3" in="shadowSpreadOuter1" result="shadowOffsetOuter1"></feOffset>
            <feGaussianBlur stdDeviation="2.5" in="shadowOffsetOuter1" result="shadowBlurOuter1"></feGaussianBlur>
            <feColorMatrix values="0 0 0 0 0.898039216   0 0 0 0 0.909803922   0 0 0 0 0.937254902  0 0 0 1 0" type="matrix" in="shadowBlurOuter1"></feColorMatrix>
        </filter>
    </defs>
    <g id="Page-1" stroke="none" stroke-width="1" fill="none" fill-rule="evenodd">
        <g id="Classes-Overview-Copy" transform="translate(-38.000000, -531.000000)">
            <g id="Group-2" transform="translate(44.000000, 537.000000)">
                <g id="Oval">
                    <use fill="black" fill-opacity="1" filter="url(#filter-2)" xlink:href="#path-1"></use>
                    <use fill="#7ABABB" fill-rule="evenodd" xlink:href="#path-1"></use>
                </g>
                <g id="Edit" transform="translate(15.000000, 16.000000)" fill="#FFFFFF">
                    <path d="M29.2479228,4.89815929 L24.9618993,0.731187063 C23.957881,-0.243729021 22.3313696,-0.243729021 21.3273513,0.731187063 L0.754438529,20.7326538 C-0.0256177479,21.4910427 9.83931424e-05,23.3328444 9.83931424e-05,23.3328444 L9.83931424e-05,30 L6.857736,29.1666056 C7.77992905,29.1371343 8.67340769,28.8475807 9.4293501,28.3332111 L29.2479228,8.43175174 C30.2506924,7.45562167 30.2506924,5.87428936 29.2479228,4.89815929 Z M7.95258621,25.3125 L3.75,21.2715517 L23.9224138,1.875 L28.125,5.91594828 L7.95258621,25.3125 Z" id="Shape"></path>
                </g>
            </g>
        </g>
    </g>
</svg>