<?xml version="1.0" encoding="UTF-8"?>
<svg width="60px" height="57px" viewBox="0 0 60 57" version="1.1" xmlns="http://www.w3.org/2000/svg" xmlns:xlink="http://www.w3.org/1999/xlink">
    <!-- Generator: Sketch 54.1 (76490) - https://sketchapp.com -->
    <title>Home</title>
    <desc>Created with Sketch.</desc>
    <g id="Page-1" stroke="none" stroke-width="1" fill="none" fill-rule="evenodd">
        <g id="Classes-Overview-Copy" transform="translate(-42.000000, -397.000000)" fill="#7ABABB">
            <g id="Home" transform="translate(42.000000, 397.000000)">
                <path d="M58.5524564,23.2380284 L32.6630656,0.989612113 C31.1266121,-0.329870704 28.8733879,-0.329870704 27.3369344,0.989612113 L1.44754357,23.2380284 C0.161894869,24.3476443 -0.324535633,26.1399835 0.220468096,27.7594048 C0.765471824,29.3788262 2.23139721,30.4969533 3.91842922,30.5800057 L3.91842922,52.828422 C3.91842922,55.1323209 5.76218453,57 8.03657198,57 L51.963428,57 C54.2378155,57 56.0815708,55.1323209 56.0815708,52.828422 L56.0815708,30.593911 C57.7686028,30.5108585 59.2345282,29.3927315 59.7795319,27.7733101 C60.3245356,26.1538887 59.8381051,24.3615496 58.5524564,23.2519336 L58.5524564,23.2380284 Z M28.6272857,52.8423272 L25.8818572,52.8423272 L25.8818572,40.3275931 L34.1181428,40.3275931 L34.1181428,52.8423272 L28.6272857,52.8423272 Z M51.963428,26.4223329 L51.963428,52.8423272 L38.2362855,52.8423272 L38.2362855,40.3275931 C38.2362855,38.0236941 36.3925302,36.156015 34.1181428,36.156015 L25.8818572,36.156015 C23.6074698,36.156015 21.7637145,38.0236941 21.7637145,40.3275931 L21.7637145,52.8423272 L8.03657198,52.8423272 L8.03657198,26.4223329 L4.11060922,26.4223329 L30,4.17391669 L55.8893908,26.4223329 L51.963428,26.4223329 Z" id="Shape"></path>
            </g>
        </g>
    </g>
</svg>