<?xml version="1.0" encoding="UTF-8"?>
<svg width="60px" height="56px" viewBox="0 0 60 56" version="1.1" xmlns="http://www.w3.org/2000/svg" xmlns:xlink="http://www.w3.org/1999/xlink">
    <!-- Generator: Sketch 54.1 (76490) - https://sketchapp.com -->
    <title>User</title>
    <desc>Created with Sketch.</desc>
    <g id="Page-1" stroke="none" stroke-width="1" fill="none" fill-rule="evenodd">
        <g id="Classes-Overview-Copy" transform="translate(-110.000000, -534.000000)">
            <g id="User" transform="translate(110.000000, 534.000000)">
                <path d="M30,35.6363636 C38.1249153,35.6363636 44.7457627,27.6478788 44.7457627,17.8181818 C44.7457627,7.98848485 38.1249153,0 30,0 C21.8750847,0 15.2542373,7.98848485 15.2542373,17.8181818 C15.2542373,27.6478788 21.8898305,35.6363636 30,35.6363636 Z M30,4.45454545 C35.7066102,4.45454545 40.3220339,10.3939394 40.3220339,17.8181818 C40.3220339,25.2424242 35.7066102,31.1818182 30,31.1818182 C24.2933898,31.1818182 19.6779661,25.2424242 19.6779661,17.8181818 C19.6779661,10.3939394 24.2933898,4.45454545 30,4.45454545 Z" id="Shape" fill="#7ABABB"></path>
                <path d="M43.3902439,33.6113423 C42.1779116,33.4876108 41.0968432,34.3903495 40.97561,35.6276658 C40.8543767,36.864982 41.7388872,37.9683293 42.9512195,38.092061 C49.7590561,38.9085102 55.0333698,44.5550216 55.5073171,51.534217 L4.49268293,51.534217 C5.01143119,44.5752786 10.2629086,38.953215 17.0487805,38.092061 C18.2611129,37.9683294 19.1456235,36.864982 19.0243902,35.6276657 C18.903157,34.3903494 17.8220885,33.4876107 16.6097561,33.6113423 C16.4487805,33.6113423 0,35.5231156 0,53.7596407 C0,54.996957 0.982789574,56 2.19512195,56 L57.804878,56 C59.0172104,56 60,54.996957 60,53.7596407 C60,35.5231156 43.5512195,33.6113423 43.3902439,33.6113423 Z" id="Shape" fill="#7FBDBB"></path>
            </g>
        </g>
    </g>
</svg>