<?xml version="1.0" encoding="UTF-8"?>
<svg width="55px" height="60px" viewBox="0 0 55 60" version="1.1" xmlns="http://www.w3.org/2000/svg" xmlns:xlink="http://www.w3.org/1999/xlink">
    <!-- Generator: Sketch 55.2 (78181) - https://sketchapp.com -->
    <title>Trash</title>
    <desc>Created with Sketch.</desc>
    <g id="Page-1" stroke="none" stroke-width="1" fill="none" fill-rule="evenodd">
        <g id="Classes-Overview-Copy" transform="translate(-114.000000, -238.000000)" fill="#979797">
            <g id="Trash" transform="translate(114.000000, 238.000000)">
                <path d="M40.7846154,8.97808665 C38.6968363,3.57515111 33.4067885,0 27.5,0 C21.5932115,0 16.3031637,3.57515111 14.2153846,8.97808665 L2.11538462,8.97808665 C0.947089952,8.97808665 0,9.90416592 0,11.0465426 C0,12.1889193 0.947089952,13.1149985 2.11538462,13.1149985 L3.52564103,13.1149985 L3.52564103,55.8630881 C3.52564103,58.1478415 5.41982093,60 7.75641026,60 L45.8333333,60 C48.1699227,60 50.0641026,58.1478415 50.0641026,55.8630881 L50.0641026,13.1149985 L52.8846154,13.1149985 C54.05291,13.1149985 55,12.1889193 55,11.0465426 C55,9.90416592 54.05291,8.97808665 52.8846154,8.97808665 L40.7846154,8.97808665 Z M27.5,4.15168944 C31.35,4.15168944 34.6923077,5.53066008 36.3423077,8.97808665 L18.6576923,8.97808665 C20.3076923,5.51687037 23.65,4.15168944 27.5,4.15168944 Z M45.8333333,55.8630881 L40.1923077,55.8630881 L40.1923077,32.4205874 C40.1923077,31.2782107 39.2452177,30.3521314 38.0769231,30.3521314 C36.9086284,30.3521314 35.9615385,31.2782107 35.9615385,32.4205874 L35.9615385,55.8630881 L28.9102564,55.8630881 L28.9102564,24.1467636 C28.9102564,23.0043869 27.9631665,22.0783076 26.7948718,22.0783076 C25.6265771,22.0783076 24.6794872,23.0043869 24.6794872,24.1467636 L24.6794872,55.8630881 L17.6282051,55.8630881 L17.6282051,32.4205874 C17.6282051,31.2782107 16.6811152,30.3521314 15.5128205,30.3521314 C14.3445258,30.3521314 13.3974359,31.2782107 13.3974359,32.4205874 L13.3974359,55.8630881 L7.75641026,55.8630881 L7.75641026,13.1149985 L45.8333333,13.1149985 L45.8333333,55.8630881 Z" id="Shape"></path>
            </g>
        </g>
    </g>
</svg>